# xmcd
#
# Track frame offsets:
#	150
#	15652
#	37806
#	54485
#	72426
#	91100
#	116722
#	137760
#	156523
#	182650
#	205654
#	228490
#
# Disc length: 3337 seconds
#
# Revision: 0
# Processed by: cddbd v1.4PL0 Copyright (c) Steve Scherf et al.
# Submitted via: dBpowerAMP V4.0
#
DISCID=9d0d070c
DTITLE=Mood Swing - Microwave Woman
DYEAR=1900
DGENRE=Blues
TTITLE0=Rocket 88
TTITLE1=Microwave Woman
TTITLE2=Keys to the Highway
TTITLE3=Killin' Floor
TTITLE4=Crosscut saw
TTITLE5=Have you ever been mistreaded?
TTITLE6=Everyday I have the Blues
TTITLE7=Pistacho
TTITLE8=Little bit of yo' love
TTITLE9=Chicken Shack
TTITLE10=Messin' with the kid
TTITLE11=Someone to Love
EXTD=
EXTT0=
EXTT1=
EXTT2=
EXTT3=
EXTT4=
EXTT5=
EXTT6=
EXTT7=
EXTT8=
EXTT9=
EXTT10=
EXTT11=
PLAYORDER=
